<svg xmlns="http://www.w3.org/2000/svg" xmlns:xlink="http://www.w3.org/1999/xlink" version="1.1" class="marks" width="814" height="405" viewBox="0 0 814 405"><rect width="814" height="405" fill="white"/><g fill="none" stroke-miterlimit="10" transform="translate(59,27)"><g class="mark-group role-frame root" role="graphics-object" aria-roledescription="group mark container"><g transform="translate(0,0)"><path class="background" aria-hidden="true" d="M0.5,0.5h750v300h-750Z" stroke="#ddd"/><g><g class="mark-group role-axis" role="graphics-symbol" aria-roledescription="axis" aria-label="Y-axis for a linear scale with values from 0 to 35,000"><g transform="translate(0.5,0.5)"><path class="background" aria-hidden="true" d="M0,0h0v0h0Z" pointer-events="none"/><g><g class="mark-rule role-axis-grid" pointer-events="none"><line transform="translate(0,300)" x2="750" y2="0" stroke="#ddd" stroke-width="1" opacity="1"/><line transform="translate(0,257)" x2="750" y2="0" stroke="#ddd" stroke-width="1" opacity="1"/><line transform="translate(0,214)" x2="750" y2="0" stroke="#ddd" stroke-width="1" opacity="1"/><line transform="translate(0,171)" x2="750" y2="0" stroke="#ddd" stroke-width="1" opacity="1"/><line transform="translate(0,129)" x2="750" y2="0" stroke="#ddd" stroke-width="1" opacity="1"/><line transform="translate(0,86)" x2="750" y2="0" stroke="#ddd" stroke-width="1" opacity="1"/><line transform="translate(0,43)" x2="750" y2="0" stroke="#ddd" stroke-width="1" opacity="1"/><line transform="translate(0,0)" x2="750" y2="0" stroke="#ddd" stroke-width="1" opacity="1"/></g></g><path class="foreground" aria-hidden="true" d="" pointer-events="none" display="none"/></g></g><g class="mark-group role-axis" role="graphics-symbol" aria-roledescription="axis" aria-label="X-axis titled 'lifetime_interval' for a discrete scale with 9 values: 55.0-60.0, 60.0-65.0, 65.0-70.0, 70.0-75.0, 75.0-80.0, ending with 95.0-100.0"><g transform="translate(0.5,300.5)"><path class="background" aria-hidden="true" d="M0,0h0v0h0Z" pointer-events="none"/><g><g class="mark-rule role-axis-tick" pointer-events="none"><line transform="translate(41,0)" x2="0" y2="5" stroke="#888" stroke-width="1" opacity="1"/><line transform="translate(125,0)" x2="0" y2="5" stroke="#888" stroke-width="1" opacity="1"/><line transform="translate(208,0)" x2="0" y2="5" stroke="#888" stroke-width="1" opacity="1"/><line transform="translate(291,0)" x2="0" y2="5" stroke="#888" stroke-width="1" opacity="1"/><line transform="translate(375,0)" x2="0" y2="5" stroke="#888" stroke-width="1" opacity="1"/><line transform="translate(458,0)" x2="0" y2="5" stroke="#888" stroke-width="1" opacity="1"/><line transform="translate(541,0)" x2="0" y2="5" stroke="#888" stroke-width="1" opacity="1"/><line transform="translate(625,0)" x2="0" y2="5" stroke="#888" stroke-width="1" opacity="1"/><line transform="translate(708,0)" x2="0" y2="5" stroke="#888" stroke-width="1" opacity="1"/></g><g class="mark-text role-axis-label" pointer-events="none"><text text-anchor="end" transform="translate(41.166666666666686,7) rotate(270) translate(0,3)" font-family="sans-serif" font-size="10px" fill="#000" opacity="1">55.0-60.0</text><text text-anchor="end" transform="translate(124.50000000000001,7) rotate(270) translate(0,3)" font-family="sans-serif" font-size="10px" fill="#000" opacity="1">60.0-65.0</text><text text-anchor="end" transform="translate(207.83333333333334,7) rotate(270) translate(0,3)" font-family="sans-serif" font-size="10px" fill="#000" opacity="1">65.0-70.0</text><text text-anchor="end" transform="translate(291.1666666666667,7) rotate(270) translate(0,3)" font-family="sans-serif" font-size="10px" fill="#000" opacity="1">70.0-75.0</text><text text-anchor="end" transform="translate(374.5,7) rotate(270) translate(0,3)" font-family="sans-serif" font-size="10px" fill="#000" opacity="1">75.0-80.0</text><text text-anchor="end" transform="translate(457.8333333333333,7) rotate(270) translate(0,3)" font-family="sans-serif" font-size="10px" fill="#000" opacity="1">80.0-85.0</text><text text-anchor="end" transform="translate(541.1666666666667,7) rotate(270) translate(0,3)" font-family="sans-serif" font-size="10px" fill="#000" opacity="1">85.0-90.0</text><text text-anchor="end" transform="translate(624.5,7) rotate(270) translate(0,3)" font-family="sans-serif" font-size="10px" fill="#000" opacity="1">90.0-95.0</text><text text-anchor="end" transform="translate(707.8333333333333,7) rotate(270) translate(0,3)" font-family="sans-serif" font-size="10px" fill="#000" opacity="1">95.0-100.0</text></g><g class="mark-rule role-axis-domain" pointer-events="none"><line transform="translate(0,0)" x2="750" y2="0" stroke="#888" stroke-width="1" opacity="1"/></g><g class="mark-text role-axis-title" pointer-events="none"><text text-anchor="middle" transform="translate(375,70.1904296875)" font-family="sans-serif" font-size="11px" font-weight="bold" fill="#000" opacity="1">lifetime_interval</text></g></g><path class="foreground" aria-hidden="true" d="" pointer-events="none" display="none"/></g></g><g class="mark-group role-axis" role="graphics-symbol" aria-roledescription="axis" aria-label="Y-axis titled 'Number of Counties' for a linear scale with values from 0 to 35,000"><g transform="translate(0.5,0.5)"><path class="background" aria-hidden="true" d="M0,0h0v0h0Z" pointer-events="none"/><g><g class="mark-rule role-axis-tick" pointer-events="none"><line transform="translate(0,300)" x2="-5" y2="0" stroke="#888" stroke-width="1" opacity="1"/><line transform="translate(0,257)" x2="-5" y2="0" stroke="#888" stroke-width="1" opacity="1"/><line transform="translate(0,214)" x2="-5" y2="0" stroke="#888" stroke-width="1" opacity="1"/><line transform="translate(0,171)" x2="-5" y2="0" stroke="#888" stroke-width="1" opacity="1"/><line transform="translate(0,129)" x2="-5" y2="0" stroke="#888" stroke-width="1" opacity="1"/><line transform="translate(0,86)" x2="-5" y2="0" stroke="#888" stroke-width="1" opacity="1"/><line transform="translate(0,43)" x2="-5" y2="0" stroke="#888" stroke-width="1" opacity="1"/><line transform="translate(0,0)" x2="-5" y2="0" stroke="#888" stroke-width="1" opacity="1"/></g><g class="mark-text role-axis-label" pointer-events="none"><text text-anchor="end" transform="translate(-7,303)" font-family="sans-serif" font-size="10px" fill="#000" opacity="1">0</text><text text-anchor="end" transform="translate(-7,260.14285714285717)" font-family="sans-serif" font-size="10px" fill="#000" opacity="1">5,000</text><text text-anchor="end" transform="translate(-7,217.28571428571428)" font-family="sans-serif" font-size="10px" fill="#000" opacity="1">10,000</text><text text-anchor="end" transform="translate(-7,174.42857142857142)" font-family="sans-serif" font-size="10px" fill="#000" opacity="1">15,000</text><text text-anchor="end" transform="translate(-7,131.57142857142858)" font-family="sans-serif" font-size="10px" fill="#000" opacity="1">20,000</text><text text-anchor="end" transform="translate(-7,88.71428571428571)" font-family="sans-serif" font-size="10px" fill="#000" opacity="1">25,000</text><text text-anchor="end" transform="translate(-7,45.85714285714287)" font-family="sans-serif" font-size="10px" fill="#000" opacity="1">30,000</text><text text-anchor="end" transform="translate(-7,3)" font-family="sans-serif" font-size="10px" fill="#000" opacity="1">35,000</text></g><g class="mark-rule role-axis-domain" pointer-events="none"><line transform="translate(0,300)" x2="0" y2="-300" stroke="#888" stroke-width="1" opacity="1"/></g><g class="mark-text role-axis-title" pointer-events="none"><text text-anchor="middle" transform="translate(-42.728515625,150) rotate(-90) translate(0,-2)" font-family="sans-serif" font-size="11px" font-weight="bold" fill="#000" opacity="1">Number of Counties</text></g></g><path class="foreground" aria-hidden="true" d="" pointer-events="none" display="none"/></g></g><g class="mark-rect role-mark layer_0_marks" role="graphics-symbol" aria-roledescription="rect mark container"><path d="M4.166666666666686,299.9485714285714h75v0.05142857142857338h-75Z" fill="lightblue"/><path d="M87.50000000000001,299.1514285714286h75v0.8485714285714039h-75Z" fill="lightblue"/><path d="M170.83333333333334,286.50857142857143h75v13.491428571428571h-75Z" fill="lightblue"/><path d="M254.16666666666669,204.54h75v95.46000000000001h-75Z" fill="lightblue"/><path d="M337.5,37.97142857142857h75v262.0285714285714h-75Z" fill="lightblue"/><path d="M420.8333333333333,119.57999999999998h75v180.42000000000002h-75Z" fill="blue"/><path d="M504.1666666666667,277.33714285714285h75v22.66285714285715h-75Z" fill="lightblue"/><path d="M587.5,299.42571428571426h75v0.574285714285736h-75Z" fill="lightblue"/><path d="M670.8333333333333,299.98285714285714h75v0.017142857142857792h-75Z" fill="lightblue"/></g><g class="mark-text role-mark layer_1_marks" role="graphics-object" aria-roledescription="text mark container"><text text-anchor="middle" transform="translate(41.666666666666686,292.9485714285714)" font-family="sans-serif" font-size="11px" fill="black">6</text><text text-anchor="middle" transform="translate(125.00000000000001,292.1514285714286)" font-family="sans-serif" font-size="11px" fill="black">99</text><text text-anchor="middle" transform="translate(208.33333333333334,279.50857142857143)" font-family="sans-serif" font-size="11px" fill="black">1574</text><text text-anchor="middle" transform="translate(291.6666666666667,197.54)" font-family="sans-serif" font-size="11px" fill="black">11137</text><text text-anchor="middle" transform="translate(375,30.971428571428568)" font-family="sans-serif" font-size="11px" fill="black">30570</text><text text-anchor="middle" transform="translate(458.3333333333333,112.57999999999998)" font-family="sans-serif" font-size="11px" fill="black">21049 (Red Lake)</text><text text-anchor="middle" transform="translate(541.6666666666667,270.33714285714285)" font-family="sans-serif" font-size="11px" fill="black">2644</text><text text-anchor="middle" transform="translate(625,292.42571428571426)" font-family="sans-serif" font-size="11px" fill="black">67</text><text text-anchor="middle" transform="translate(708.3333333333333,292.98285714285714)" font-family="sans-serif" font-size="11px" fill="black">2</text></g><g class="mark-group role-title"><g transform="translate(375,-22)"><path class="background" aria-hidden="true" d="M0,0h0v0h0Z" pointer-events="none"/><g><g class="mark-text role-title-text" role="graphics-symbol" aria-roledescription="title" aria-label="Title text 'US Average Lifetime by Counties'" pointer-events="none"><text text-anchor="middle" transform="translate(0,10)" font-family="sans-serif" font-size="13px" font-weight="bold" fill="#000" opacity="1">US Average Lifetime by Counties</text></g></g><path class="foreground" aria-hidden="true" d="" pointer-events="none" display="none"/></g></g></g><path class="foreground" aria-hidden="true" d="" display="none"/></g></g></g></svg>