<svg xmlns="http://www.w3.org/2000/svg" xmlns:xlink="http://www.w3.org/1999/xlink" version="1.1" class="marks" width="610" height="459" viewBox="0 0 610 459"><rect width="610" height="459" fill="white"/><g fill="none" stroke-miterlimit="10" transform="translate(104,22)"><g class="mark-group role-frame root" role="graphics-object" aria-roledescription="group mark container"><g transform="translate(0,0)"><path class="background" aria-hidden="true" d="M0.5,0.5h500v400h-500Z" stroke="#ddd"/><g><g class="mark-group role-axis" role="graphics-symbol" aria-roledescription="axis" aria-label="X-axis for a linear scale with values from 2.4 to 5.0"><g transform="translate(0.5,400.5)"><path class="background" aria-hidden="true" d="M0,0h0v0h0Z" pointer-events="none"/><g><g class="mark-rule role-axis-grid" pointer-events="none"><line transform="translate(0,0)" x2="0" y2="-400" stroke="#ddd" stroke-width="1" opacity="1"/><line transform="translate(38,0)" x2="0" y2="-400" stroke="#ddd" stroke-width="1" opacity="1"/><line transform="translate(77,0)" x2="0" y2="-400" stroke="#ddd" stroke-width="1" opacity="1"/><line transform="translate(115,0)" x2="0" y2="-400" stroke="#ddd" stroke-width="1" opacity="1"/><line transform="translate(154,0)" x2="0" y2="-400" stroke="#ddd" stroke-width="1" opacity="1"/><line transform="translate(192,0)" x2="0" y2="-400" stroke="#ddd" stroke-width="1" opacity="1"/><line transform="translate(231,0)" x2="0" y2="-400" stroke="#ddd" stroke-width="1" opacity="1"/><line transform="translate(269,0)" x2="0" y2="-400" stroke="#ddd" stroke-width="1" opacity="1"/><line transform="translate(308,0)" x2="0" y2="-400" stroke="#ddd" stroke-width="1" opacity="1"/><line transform="translate(346,0)" x2="0" y2="-400" stroke="#ddd" stroke-width="1" opacity="1"/><line transform="translate(385,0)" x2="0" y2="-400" stroke="#ddd" stroke-width="1" opacity="1"/><line transform="translate(423,0)" x2="0" y2="-400" stroke="#ddd" stroke-width="1" opacity="1"/><line transform="translate(462,0)" x2="0" y2="-400" stroke="#ddd" stroke-width="1" opacity="1"/><line transform="translate(500,0)" x2="0" y2="-400" stroke="#ddd" stroke-width="1" opacity="1"/></g></g><path class="foreground" aria-hidden="true" d="" pointer-events="none" display="none"/></g></g><g class="mark-group role-axis" role="graphics-symbol" aria-roledescription="axis" aria-label="X-axis titled 'Unemployment Rate' for a linear scale with values from 2.4 to 5.0"><g transform="translate(0.5,400.5)"><path class="background" aria-hidden="true" d="M0,0h0v0h0Z" pointer-events="none"/><g><g class="mark-rule role-axis-tick" pointer-events="none"><line transform="translate(0,0)" x2="0" y2="5" stroke="#888" stroke-width="1" opacity="1"/><line transform="translate(38,0)" x2="0" y2="5" stroke="#888" stroke-width="1" opacity="1"/><line transform="translate(77,0)" x2="0" y2="5" stroke="#888" stroke-width="1" opacity="1"/><line transform="translate(115,0)" x2="0" y2="5" stroke="#888" stroke-width="1" opacity="1"/><line transform="translate(154,0)" x2="0" y2="5" stroke="#888" stroke-width="1" opacity="1"/><line transform="translate(192,0)" x2="0" y2="5" stroke="#888" stroke-width="1" opacity="1"/><line transform="translate(231,0)" x2="0" y2="5" stroke="#888" stroke-width="1" opacity="1"/><line transform="translate(269,0)" x2="0" y2="5" stroke="#888" stroke-width="1" opacity="1"/><line transform="translate(308,0)" x2="0" y2="5" stroke="#888" stroke-width="1" opacity="1"/><line transform="translate(346,0)" x2="0" y2="5" stroke="#888" stroke-width="1" opacity="1"/><line transform="translate(385,0)" x2="0" y2="5" stroke="#888" stroke-width="1" opacity="1"/><line transform="translate(423,0)" x2="0" y2="5" stroke="#888" stroke-width="1" opacity="1"/><line transform="translate(462,0)" x2="0" y2="5" stroke="#888" stroke-width="1" opacity="1"/><line transform="translate(500,0)" x2="0" y2="5" stroke="#888" stroke-width="1" opacity="1"/></g><g class="mark-text role-axis-label" pointer-events="none"><text text-anchor="start" transform="translate(0,15)" font-family="sans-serif" font-size="10px" fill="#000" opacity="1">2.4</text><text text-anchor="middle" transform="translate(38.46153846153849,15)" font-family="sans-serif" font-size="10px" fill="#000" opacity="1">2.6</text><text text-anchor="middle" transform="translate(76.9230769230769,15)" font-family="sans-serif" font-size="10px" fill="#000" opacity="1">2.8</text><text text-anchor="middle" transform="translate(115.38461538461539,15)" font-family="sans-serif" font-size="10px" fill="#000" opacity="1">3.0</text><text text-anchor="middle" transform="translate(153.8461538461539,15)" font-family="sans-serif" font-size="10px" fill="#000" opacity="1">3.2</text><text text-anchor="middle" transform="translate(192.3076923076923,15)" font-family="sans-serif" font-size="10px" fill="#000" opacity="1">3.4</text><text text-anchor="middle" transform="translate(230.76923076923077,15)" font-family="sans-serif" font-size="10px" fill="#000" opacity="1">3.6</text><text text-anchor="middle" transform="translate(269.2307692307692,15)" font-family="sans-serif" font-size="10px" fill="#000" opacity="1">3.8</text><text text-anchor="middle" transform="translate(307.69230769230774,15)" font-family="sans-serif" font-size="10px" fill="#000" opacity="1">4.0</text><text text-anchor="middle" transform="translate(346.1538461538462,15)" font-family="sans-serif" font-size="10px" fill="#000" opacity="1">4.2</text><text text-anchor="middle" transform="translate(384.6153846153847,15)" font-family="sans-serif" font-size="10px" fill="#000" opacity="1">4.4</text><text text-anchor="middle" transform="translate(423.07692307692304,15)" font-family="sans-serif" font-size="10px" fill="#000" opacity="1">4.6</text><text text-anchor="middle" transform="translate(461.5384615384615,15)" font-family="sans-serif" font-size="10px" fill="#000" opacity="1">4.8</text><text text-anchor="end" transform="translate(500,15)" font-family="sans-serif" font-size="10px" fill="#000" opacity="1">5.0</text></g><g class="mark-rule role-axis-domain" pointer-events="none"><line transform="translate(0,0)" x2="500" y2="0" stroke="#888" stroke-width="1" opacity="1"/></g><g class="mark-text role-axis-title" pointer-events="none"><text text-anchor="middle" transform="translate(250,30)" font-family="sans-serif" font-size="11px" font-weight="bold" fill="#000" opacity="1">Unemployment Rate</text></g></g><path class="foreground" aria-hidden="true" d="" pointer-events="none" display="none"/></g></g><g class="mark-group role-axis" role="graphics-symbol" aria-roledescription="axis" aria-label="Y-axis titled 'State' for a discrete scale with 20 values: North Dakota, Nebraska, South Dakota, New Hampshire, Hawaii, ending with Indiana"><g transform="translate(0.5,0.5)"><path class="background" aria-hidden="true" d="M0,0h0v0h0Z" pointer-events="none"/><g><g class="mark-rule role-axis-tick" pointer-events="none"><line transform="translate(0,10)" x2="-5" y2="0" stroke="#888" stroke-width="1" opacity="1"/><line transform="translate(0,30)" x2="-5" y2="0" stroke="#888" stroke-width="1" opacity="1"/><line transform="translate(0,50)" x2="-5" y2="0" stroke="#888" stroke-width="1" opacity="1"/><line transform="translate(0,70)" x2="-5" y2="0" stroke="#888" stroke-width="1" opacity="1"/><line transform="translate(0,90)" x2="-5" y2="0" stroke="#888" stroke-width="1" opacity="1"/><line transform="translate(0,110)" x2="-5" y2="0" stroke="#888" stroke-width="1" opacity="1"/><line transform="translate(0,130)" x2="-5" y2="0" stroke="#888" stroke-width="1" opacity="1"/><line transform="translate(0,150)" x2="-5" y2="0" stroke="#888" stroke-width="1" opacity="1"/><line transform="translate(0,170)" x2="-5" y2="0" stroke="#888" stroke-width="1" opacity="1"/><line transform="translate(0,190)" x2="-5" y2="0" stroke="#888" stroke-width="1" opacity="1"/><line transform="translate(0,210)" x2="-5" y2="0" stroke="#888" stroke-width="1" opacity="1"/><line transform="translate(0,230)" x2="-5" y2="0" stroke="#888" stroke-width="1" opacity="1"/><line transform="translate(0,250)" x2="-5" y2="0" stroke="#888" stroke-width="1" opacity="1"/><line transform="translate(0,270)" x2="-5" y2="0" stroke="#888" stroke-width="1" opacity="1"/><line transform="translate(0,290)" x2="-5" y2="0" stroke="#888" stroke-width="1" opacity="1"/><line transform="translate(0,310)" x2="-5" y2="0" stroke="#888" stroke-width="1" opacity="1"/><line transform="translate(0,330)" x2="-5" y2="0" stroke="#888" stroke-width="1" opacity="1"/><line transform="translate(0,350)" x2="-5" y2="0" stroke="#888" stroke-width="1" opacity="1"/><line transform="translate(0,370)" x2="-5" y2="0" stroke="#888" stroke-width="1" opacity="1"/><line transform="translate(0,390)" x2="-5" y2="0" stroke="#888" stroke-width="1" opacity="1"/></g><g class="mark-text role-axis-label" pointer-events="none"><text text-anchor="end" transform="translate(-7,12.5)" font-family="sans-serif" font-size="10px" fill="#000" opacity="1">North Dakota</text><text text-anchor="end" transform="translate(-7,32.5)" font-family="sans-serif" font-size="10px" fill="#000" opacity="1">Nebraska</text><text text-anchor="end" transform="translate(-7,52.5)" font-family="sans-serif" font-size="10px" fill="#000" opacity="1">South Dakota</text><text text-anchor="end" transform="translate(-7,72.5)" font-family="sans-serif" font-size="10px" fill="#000" opacity="1">New Hampshire</text><text text-anchor="end" transform="translate(-7,92.5)" font-family="sans-serif" font-size="10px" fill="#000" opacity="1">Hawaii</text><text text-anchor="end" transform="translate(-7,112.5)" font-family="sans-serif" font-size="10px" fill="#000" opacity="1">Vermont</text><text text-anchor="end" transform="translate(-7,132.5)" font-family="sans-serif" font-size="10px" fill="#000" opacity="1">Utah</text><text text-anchor="end" transform="translate(-7,152.5)" font-family="sans-serif" font-size="10px" fill="#000" opacity="1">Iowa</text><text text-anchor="end" transform="translate(-7,172.5)" font-family="sans-serif" font-size="10px" fill="#000" opacity="1">Colorado</text><text text-anchor="end" transform="translate(-7,192.5)" font-family="sans-serif" font-size="10px" fill="#000" opacity="1">Minnesota</text><text text-anchor="end" transform="translate(-7,212.5)" font-family="sans-serif" font-size="10px" fill="#000" opacity="1">Idaho</text><text text-anchor="end" transform="translate(-7,232.5)" font-family="sans-serif" font-size="10px" fill="#000" opacity="1">Kansas</text><text text-anchor="end" transform="translate(-7,252.5)" font-family="sans-serif" font-size="10px" fill="#000" opacity="1">Wyoming</text><text text-anchor="end" transform="translate(-7,272.5)" font-family="sans-serif" font-size="10px" fill="#000" opacity="1">Virginia</text><text text-anchor="end" transform="translate(-7,292.5)" font-family="sans-serif" font-size="10px" fill="#000" opacity="1">Maine</text><text text-anchor="end" transform="translate(-7,312.5)" font-family="sans-serif" font-size="10px" fill="#000" opacity="1">Montana</text><text text-anchor="end" transform="translate(-7,332.5)" font-family="sans-serif" font-size="10px" fill="#000" opacity="1">Oklahoma</text><text text-anchor="end" transform="translate(-7,352.5)" font-family="sans-serif" font-size="10px" fill="#000" opacity="1">Texas</text><text text-anchor="end" transform="translate(-7,372.5)" font-family="sans-serif" font-size="10px" fill="#000" opacity="1">Wisconsin</text><text text-anchor="end" transform="translate(-7,392.5)" font-family="sans-serif" font-size="10px" fill="#000" opacity="1">Indiana</text></g><g class="mark-rule role-axis-domain" pointer-events="none"><line transform="translate(0,0)" x2="0" y2="400" stroke="#888" stroke-width="1" opacity="1"/></g><g class="mark-text role-axis-title" pointer-events="none"><text text-anchor="middle" transform="translate(-87.6162109375,200) rotate(-90) translate(0,-2)" font-family="sans-serif" font-size="11px" font-weight="bold" fill="#000" opacity="1">State</text></g></g><path class="foreground" aria-hidden="true" d="" pointer-events="none" display="none"/></g></g><g class="mark-rect role-mark layer_0_marks" role="graphics-symbol" aria-roledescription="rect mark container"><path d="M0,1h76.9230769230769v18h-76.9230769230769Z" fill="lightblue"/><path d="M0,21h115.38461538461539v18h-115.38461538461539Z" fill="lightblue"/><path d="M0,41h134.61538461538464v18h-134.61538461538464Z" fill="lightblue"/><path d="M0,61h173.07692307692304v18h-173.07692307692304Z" fill="lightblue"/><path d="M0,81h173.07692307692304v18h-173.07692307692304Z" fill="lightblue"/><path d="M0,101h211.53846153846155v18h-211.53846153846155Z" fill="lightblue"/><path d="M0,121h211.53846153846155v18h-211.53846153846155Z" fill="lightblue"/><path d="M0,141h230.76923076923077v18h-230.76923076923077Z" fill="lightblue"/><path d="M0,161h250.00000000000006v18h-250.00000000000006Z" fill="lightblue"/><path d="M0,181h269.2307692307692v18h-269.2307692307692Z" fill="gray"/><path d="M0,201h288.46153846153845v18h-288.46153846153845Z" fill="lightblue"/><path d="M0,221h326.92307692307685v18h-326.92307692307685Z" fill="lightblue"/><path d="M0,241h346.1538461538462v18h-346.1538461538462Z" fill="lightblue"/><path d="M0,261h365.38461538461536v18h-365.38461538461536Z" fill="lightblue"/><path d="M0,281h365.38461538461536v18h-365.38461538461536Z" fill="lightblue"/><path d="M0,301h365.38461538461536v18h-365.38461538461536Z" fill="lightblue"/><path d="M0,321h384.6153846153847v18h-384.6153846153847Z" fill="lightblue"/><path d="M0,341h384.6153846153847v18h-384.6153846153847Z" fill="lightblue"/><path d="M0,361h384.6153846153847v18h-384.6153846153847Z" fill="lightblue"/><path d="M0,381h423.07692307692304v18h-423.07692307692304Z" fill="lightblue"/></g><g class="mark-text role-mark layer_1_marks" role="graphics-object" aria-roledescription="text mark container"><text text-anchor="start" transform="translate(86.9230769230769,13)" font-family="sans-serif" font-size="11px" fill="black">2.8</text><text text-anchor="start" transform="translate(125.38461538461539,33)" font-family="sans-serif" font-size="11px" fill="black">3</text><text text-anchor="start" transform="translate(144.61538461538464,53)" font-family="sans-serif" font-size="11px" fill="black">3.1</text><text text-anchor="start" transform="translate(183.07692307692304,73)" font-family="sans-serif" font-size="11px" fill="black">3.3</text><text text-anchor="start" transform="translate(183.07692307692304,93)" font-family="sans-serif" font-size="11px" fill="black">3.3</text><text text-anchor="start" transform="translate(221.53846153846155,113)" font-family="sans-serif" font-size="11px" fill="black">3.5</text><text text-anchor="start" transform="translate(221.53846153846155,133)" font-family="sans-serif" font-size="11px" fill="black">3.5</text><text text-anchor="start" transform="translate(240.76923076923077,153)" font-family="sans-serif" font-size="11px" fill="black">3.6</text><text text-anchor="start" transform="translate(260.00000000000006,173)" font-family="sans-serif" font-size="11px" fill="black">3.7</text><text text-anchor="start" transform="translate(279.2307692307692,193)" font-family="sans-serif" font-size="11px" fill="black">3.8</text><text text-anchor="start" transform="translate(298.46153846153845,213)" font-family="sans-serif" font-size="11px" fill="black">3.9</text><text text-anchor="start" transform="translate(336.92307692307685,233)" font-family="sans-serif" font-size="11px" fill="black">4.1</text><text text-anchor="start" transform="translate(356.1538461538462,253)" font-family="sans-serif" font-size="11px" fill="black">4.2</text><text text-anchor="start" transform="translate(375.38461538461536,273)" font-family="sans-serif" font-size="11px" fill="black">4.3</text><text text-anchor="start" transform="translate(375.38461538461536,293)" font-family="sans-serif" font-size="11px" fill="black">4.3</text><text text-anchor="start" transform="translate(375.38461538461536,313)" font-family="sans-serif" font-size="11px" fill="black">4.3</text><text text-anchor="start" transform="translate(394.6153846153847,333)" font-family="sans-serif" font-size="11px" fill="black">4.4</text><text text-anchor="start" transform="translate(394.6153846153847,353)" font-family="sans-serif" font-size="11px" fill="black">4.4</text><text text-anchor="start" transform="translate(394.6153846153847,373)" font-family="sans-serif" font-size="11px" fill="black">4.4</text><text text-anchor="start" transform="translate(433.07692307692304,393)" font-family="sans-serif" font-size="11px" fill="black">4.6</text></g><g class="mark-group role-title"><g transform="translate(250,-17)"><path class="background" aria-hidden="true" d="M0,0h0v0h0Z" pointer-events="none"/><g><g class="mark-text role-title-text" role="graphics-symbol" aria-roledescription="title" aria-label="Title text 'US State Unemployment Rate (The Best 20)'" pointer-events="none"><text text-anchor="middle" transform="translate(0,10)" font-family="sans-serif" font-size="13px" font-weight="bold" fill="#000" opacity="1">US State Unemployment Rate (The Best 20)</text></g></g><path class="foreground" aria-hidden="true" d="" pointer-events="none" display="none"/></g></g></g><path class="foreground" aria-hidden="true" d="" display="none"/></g></g></g></svg>